<?xml version="1.0" standalone="no"?><!DOCTYPE svg PUBLIC "-//W3C//DTD SVG 1.1//EN" "http://www.w3.org/Graphics/SVG/1.1/DTD/svg11.dtd"><svg t="1696642601020" class="icon" viewBox="0 0 1024 1024" version="1.1" xmlns="http://www.w3.org/2000/svg" p-id="10458" xmlns:xlink="http://www.w3.org/1999/xlink" width="200" height="200"><path d="M384 480h-128c-52.8 0-96-43.2-96-96v-128c0-52.8 43.2-96 96-96h128c52.8 0 96 43.2 96 96v128c0 52.8-43.2 96-96 96z m-128-256c-17.6 0-32 14.4-32 32v128c0 17.6 14.4 32 32 32h128c17.6 0 32-14.4 32-32v-128c0-17.6-14.4-32-32-32h-128zM768 480h-128c-52.8 0-96-43.2-96-96v-128c0-52.8 43.2-96 96-96h128c52.8 0 96 43.2 96 96v128c0 52.8-43.2 96-96 96z m-128-256c-17.6 0-32 14.4-32 32v128c0 17.6 14.4 32 32 32h128c17.6 0 32-14.4 32-32v-128c0-17.6-14.4-32-32-32h-128zM384 864h-128c-52.8 0-96-43.2-96-96v-128c0-52.8 43.2-96 96-96h128c52.8 0 96 43.2 96 96v128c0 52.8-43.2 96-96 96z m-128-256c-17.6 0-32 14.4-32 32v128c0 17.6 14.4 32 32 32h128c17.6 0 32-14.4 32-32v-128c0-17.6-14.4-32-32-32h-128zM768 864h-128c-52.8 0-96-43.2-96-96v-128c0-52.8 43.2-96 96-96h128c52.8 0 96 43.2 96 96v128c0 52.8-43.2 96-96 96z m-128-256c-17.6 0-32 14.4-32 32v128c0 17.6 14.4 32 32 32h128c17.6 0 32-14.4 32-32v-128c0-17.6-14.4-32-32-32h-128z" p-id="10459"></path></svg>